<svg xmlns="http://www.w3.org/2000/svg" xmlns:xlink="http://www.w3.org/1999/xlink" width="500" zoomAndPan="magnify" viewBox="0 0 375 374.999991" height="500" preserveAspectRatio="xMidYMid meet" version="1.0"><defs><g/></defs><rect x="-37.5" width="450" fill="#ffffff" y="-37.499999" height="449.999989" fill-opacity="1"/><rect x="-37.5" width="450" fill="#ffffff" y="-37.499999" height="449.999989" fill-opacity="1"/><rect x="-37.5" width="450" fill="#8c52ff" y="-37.499999" height="449.999989" fill-opacity="1"/><path fill="#38b6ff" d="M 121.746094 195.332031 C 131.710938 229.527344 171.316406 236.832031 201.8125 228.726562 C 217.289062 224.613281 232.371094 216.4375 242.441406 203.777344 C 251.972656 191.792969 254.660156 176.449219 250.964844 161.730469 C 248.46875 151.792969 243.167969 142.738281 236.992188 134.652344 C 229.253906 124.515625 219.730469 114.394531 208.269531 108.511719 C 186.890625 97.539062 162.390625 105.453125 145.632812 120.9375 C 129.136719 136.183594 119.773438 158.640625 122.082031 181.078125 C 124.554688 205.164062 142.859375 226.71875 165.660156 234.378906 C 186.945312 241.53125 211.28125 236.109375 228.214844 221.648438 C 236.546875 214.53125 242.734375 205.136719 246.042969 194.714844 C 249.140625 184.953125 249.207031 174.578125 247.929688 164.5 C 245.65625 146.542969 236.902344 130.054688 221.574219 119.988281 C 207.90625 111.015625 190.824219 108.191406 174.746094 109.902344 C 159.707031 111.5 144.359375 117.355469 133.578125 128.199219 C 123.804688 138.027344 120.1875 151.480469 122.898438 164.96875 C 124.03125 170.601562 126.386719 175.804688 129.210938 180.78125 C 129.136719 180.644531 129.40625 179.8125 129.222656 179.488281 C 124.855469 171.800781 121.640625 162.730469 122.335938 153.785156 C 122.882812 146.726562 125.824219 140.054688 130.089844 134.460938 C 139.304688 122.367188 154.417969 115.601562 169.042969 112.855469 C 184.964844 109.867188 202.054688 111.574219 216.5625 118.972656 C 232.824219 127.261719 243.199219 142.683594 246.882812 160.304688 C 249.566406 173.148438 248.984375 186.535156 243.800781 198.679688 C 239.378906 209.035156 231.679688 217.75 222.421875 224.082031 C 203.789062 236.828125 178.949219 238.9375 158.519531 229.332031 C 134.148438 217.871094 118.21875 190.558594 122.957031 163.816406 C 127.089844 140.496094 143.964844 119.128906 165.738281 109.738281 C 176.03125 105.300781 187.523438 104.070312 198.433594 106.769531 C 211.59375 110.027344 221.648438 119.144531 230.558594 128.878906 C 244.046875 143.613281 256.15625 163.691406 251.160156 184.382812 C 247.375 200.078125 234.792969 211.953125 221.003906 219.417969 C 206.246094 227.410156 188.886719 231.148438 172.140625 230.191406 C 161.25 229.570312 150.285156 226.71875 141.039062 220.820312 C 131.546875 214.777344 124.90625 205.335938 121.765625 194.617188 C 121.796875 194.730469 121.6875 195.128906 121.746094 195.332031 " fill-opacity="1" fill-rule="nonzero"/><path stroke-linecap="butt" transform="matrix(0.000000000000000046, -0.74866, 0.75, 0.000000000000000046, 185.9974, 207.791002)" fill="none" stroke-linejoin="miter" d="M 0.0025911 1.498258 L 96.179693 1.498258 " stroke="#ffffff" stroke-width="3" stroke-opacity="1" stroke-miterlimit="4"/><g fill="#ffffff" fill-opacity="1"><g transform="translate(180.57446, 156.860423)"><g><path d="M -3.976562 0 L -7.75 0 L -7.75 20.074219 L -7.949219 20.074219 C -12.042969 16.417969 -15.78125 13.15625 -19.875 9.5 L -20.273438 9.140625 C -24.367188 12.800781 -28.5 16.417969 -32.59375 20.074219 L -32.792969 20.074219 C -32.792969 16.894531 -32.792969 13.675781 -32.792969 10.492188 L -32.792969 0 L -36.570312 0 L -36.570312 0.199219 C -36.570312 2.105469 -36.570312 4.171875 -36.570312 13.117188 L -36.570312 28.421875 L -36.371094 28.421875 L -36.132812 28.222656 C -35.140625 27.347656 -34.621094 26.871094 -33.628906 25.996094 L -20.273438 14.191406 L -19.875 14.589844 C -19.875 14.589844 -7.234375 25.71875 -7.234375 25.71875 L -4.414062 28.222656 L -4.171875 28.421875 L -3.976562 28.421875 L -3.976562 28.222656 C -3.976562 25.597656 -3.976562 18.601562 -3.976562 13.914062 Z M -3.976562 0 "/></g></g></g><g fill="#ffffff" fill-opacity="1"><g transform="translate(194.353014, 184.476549)"><g><path d="M 3.976562 0 L 7.75 0 L 7.75 -20.074219 L 7.949219 -20.074219 C 12.042969 -16.417969 15.78125 -13.15625 19.875 -9.5 L 20.273438 -9.140625 C 24.367188 -12.800781 28.5 -16.417969 32.59375 -20.074219 L 32.792969 -20.074219 C 32.792969 -16.894531 32.792969 -13.675781 32.792969 -10.492188 L 32.792969 0 L 36.570312 0 L 36.570312 -0.199219 C 36.570312 -2.105469 36.570312 -4.171875 36.570312 -13.117188 L 36.570312 -28.421875 L 36.371094 -28.421875 L 36.132812 -28.222656 C 35.140625 -27.347656 34.621094 -26.871094 33.628906 -25.996094 L 20.273438 -14.191406 L 19.875 -14.589844 C 19.875 -14.589844 7.234375 -25.71875 7.234375 -25.71875 L 4.414062 -28.222656 L 4.171875 -28.421875 L 3.976562 -28.421875 L 3.976562 -28.222656 C 3.976562 -25.597656 3.976562 -18.601562 3.976562 -13.914062 Z M 3.976562 0 "/></g></g></g></svg>